solid inlet_2
   facet normal -1.734723e-016 -1.000000e+000 -8.673617e-018
      outer loop
         vertex -1.000000e-002 1.000000e-002 2.000000e-001
         vertex -1.441784e-002 1.000000e-002 2.000000e-001
         vertex -1.000000e-002 1.000000e-002 0.000000e+000
      endloop
   endfacet
   facet normal -1.734723e-016 -1.000000e+000 -8.673617e-018
      outer loop
         vertex -1.000000e-002 1.000000e-002 0.000000e+000
         vertex -1.441784e-002 1.000000e-002 2.000000e-001
         vertex -1.441784e-002 1.000000e-002 0.000000e+000
      endloop
   endfacet
endsolid inlet_2
