solid outlet
   facet normal 0.000000e+000 1.000000e+000 0.000000e+000
      outer loop
         vertex 3.035050e-002 1.376205e+000 -1.984608e-001
         vertex -3.108624e-016 1.376205e+000 -2.000000e-001
         vertex 6.038956e-002 1.376205e+000 3.938590e-001
      endloop
   endfacet
   facet normal 0.000000e+000 1.000000e+000 0.000000e+000
      outer loop
         vertex 6.038956e-002 1.376205e+000 3.938590e-001
         vertex -3.108624e-016 1.376205e+000 -2.000000e-001
         vertex 3.035050e-002 1.376205e+000 3.984608e-001
      endloop
   endfacet
   facet normal 0.000000e+000 1.000000e+000 0.000000e+000
      outer loop
         vertex -2.996150e-001 1.376205e+000 1.151948e-001
         vertex -2.965405e-001 1.376205e+000 1.454283e-001
         vertex -3.108624e-016 1.376205e+000 -2.000000e-001
      endloop
   endfacet
   facet normal 0.000000e+000 1.000000e+000 0.000000e+000
      outer loop
         vertex -8.980893e-002 1.376205e+000 3.862418e-001
         vertex -6.038956e-002 1.376205e+000 3.938590e-001
         vertex -3.108624e-016 1.376205e+000 -2.000000e-001
      endloop
   endfacet
   facet normal 0.000000e+000 1.000000e+000 0.000000e+000
      outer loop
         vertex -8.980893e-002 1.376205e+000 3.862418e-001
         vertex -3.108624e-016 1.376205e+000 -2.000000e-001
         vertex -1.183068e-001 1.376205e+000 3.756873e-001
      endloop
   endfacet
   facet normal 0.000000e+000 1.000000e+000 0.000000e+000
      outer loop
         vertex -6.038956e-002 1.376205e+000 3.938590e-001
         vertex -3.035050e-002 1.376205e+000 3.984608e-001
         vertex -3.108624e-016 1.376205e+000 -2.000000e-001
      endloop
   endfacet
   facet normal 0.000000e+000 1.000000e+000 0.000000e+000
      outer loop
         vertex -3.108624e-016 1.376205e+000 -2.000000e-001
         vertex -3.035050e-002 1.376205e+000 3.984608e-001
         vertex -4.440892e-016 1.376205e+000 4.000000e-001
      endloop
   endfacet
   facet normal 0.000000e+000 1.000000e+000 0.000000e+000
      outer loop
         vertex -3.108624e-016 1.376205e+000 -2.000000e-001
         vertex -4.440892e-016 1.376205e+000 4.000000e-001
         vertex 3.035050e-002 1.376205e+000 3.984608e-001
      endloop
   endfacet
   facet normal 0.000000e+000 1.000000e+000 0.000000e+000
      outer loop
         vertex -2.174378e-001 1.376205e+000 3.066901e-001
         vertex -1.954117e-001 1.376205e+000 3.276275e-001
         vertex -3.108624e-016 1.376205e+000 -2.000000e-001
      endloop
   endfacet
   facet normal 0.000000e+000 1.000000e+000 0.000000e+000
      outer loop
         vertex 1.455906e-001 1.376205e+000 -1.623040e-001
         vertex 1.183068e-001 1.376205e+000 -1.756873e-001
         vertex 6.038956e-002 1.376205e+000 3.938590e-001
      endloop
   endfacet
   facet normal 0.000000e+000 1.000000e+000 0.000000e+000
      outer loop
         vertex -2.372327e-001 1.376205e+000 -8.363179e-002
         vertex -2.545933e-001 1.376205e+000 -5.868920e-002
         vertex -1.183068e-001 1.376205e+000 -1.756873e-001
      endloop
   endfacet
   facet normal 0.000000e+000 1.000000e+000 0.000000e+000
      outer loop
         vertex -2.965405e-001 1.376205e+000 1.454283e-001
         vertex -2.904231e-001 1.376205e+000 1.751958e-001
         vertex -3.108624e-016 1.376205e+000 -2.000000e-001
      endloop
   endfacet
   facet normal 0.000000e+000 1.000000e+000 0.000000e+000
      outer loop
         vertex -3.108624e-016 1.376205e+000 -2.000000e-001
         vertex -2.904231e-001 1.376205e+000 1.751958e-001
         vertex -2.813256e-001 1.376205e+000 2.041916e-001
      endloop
   endfacet
   facet normal 0.000000e+000 1.000000e+000 0.000000e+000
      outer loop
         vertex -3.108624e-016 1.376205e+000 -2.000000e-001
         vertex -2.813256e-001 1.376205e+000 2.041916e-001
         vertex -2.693413e-001 1.376205e+000 2.321182e-001
      endloop
   endfacet
   facet normal 0.000000e+000 1.000000e+000 0.000000e+000
      outer loop
         vertex -1.954117e-001 1.376205e+000 3.276275e-001
         vertex -1.713805e-001 1.376205e+000 3.462290e-001
         vertex -3.108624e-016 1.376205e+000 -2.000000e-001
      endloop
   endfacet
   facet normal 0.000000e+000 1.000000e+000 0.000000e+000
      outer loop
         vertex -3.108624e-016 1.376205e+000 -2.000000e-001
         vertex -1.713805e-001 1.376205e+000 3.462290e-001
         vertex -1.455906e-001 1.376205e+000 3.623040e-001
      endloop
   endfacet
   facet normal 0.000000e+000 1.000000e+000 0.000000e+000
      outer loop
         vertex -3.108624e-016 1.376205e+000 -2.000000e-001
         vertex -1.455906e-001 1.376205e+000 3.623040e-001
         vertex -1.183068e-001 1.376205e+000 3.756873e-001
      endloop
   endfacet
   facet normal 0.000000e+000 1.000000e+000 0.000000e+000
      outer loop
         vertex 2.372327e-001 1.376205e+000 -8.363179e-002
         vertex 2.174378e-001 1.376205e+000 -1.066901e-001
         vertex 6.038956e-002 1.376205e+000 3.938590e-001
      endloop
   endfacet
   facet normal 0.000000e+000 1.000000e+000 0.000000e+000
      outer loop
         vertex 1.183068e-001 1.376205e+000 -1.756873e-001
         vertex 8.980893e-002 1.376205e+000 -1.862418e-001
         vertex 6.038956e-002 1.376205e+000 3.938590e-001
      endloop
   endfacet
   facet normal 0.000000e+000 1.000000e+000 0.000000e+000
      outer loop
         vertex 6.038956e-002 1.376205e+000 3.938590e-001
         vertex 8.980893e-002 1.376205e+000 -1.862418e-001
         vertex 6.038956e-002 1.376205e+000 -1.938590e-001
      endloop
   endfacet
   facet normal 0.000000e+000 1.000000e+000 0.000000e+000
      outer loop
         vertex 6.038956e-002 1.376205e+000 3.938590e-001
         vertex 6.038956e-002 1.376205e+000 -1.938590e-001
         vertex 3.035050e-002 1.376205e+000 -1.984608e-001
      endloop
   endfacet
   facet normal 0.000000e+000 1.000000e+000 0.000000e+000
      outer loop
         vertex -1.183068e-001 1.376205e+000 -1.756873e-001
         vertex -2.545933e-001 1.376205e+000 -5.868920e-002
         vertex -8.980893e-002 1.376205e+000 -1.862418e-001
      endloop
   endfacet
   facet normal 0.000000e+000 1.000000e+000 0.000000e+000
      outer loop
         vertex -2.693413e-001 1.376205e+000 -3.211825e-002
         vertex -2.813256e-001 1.376205e+000 -4.191576e-003
         vertex -3.035050e-002 1.376205e+000 -1.984608e-001
      endloop
   endfacet
   facet normal 0.000000e+000 1.000000e+000 0.000000e+000
      outer loop
         vertex -2.693413e-001 1.376205e+000 2.321182e-001
         vertex -2.545933e-001 1.376205e+000 2.586892e-001
         vertex -3.108624e-016 1.376205e+000 -2.000000e-001
      endloop
   endfacet
   facet normal 0.000000e+000 1.000000e+000 0.000000e+000
      outer loop
         vertex -3.108624e-016 1.376205e+000 -2.000000e-001
         vertex -2.545933e-001 1.376205e+000 2.586892e-001
         vertex -2.372327e-001 1.376205e+000 2.836318e-001
      endloop
   endfacet
   facet normal 0.000000e+000 1.000000e+000 0.000000e+000
      outer loop
         vertex -3.108624e-016 1.376205e+000 -2.000000e-001
         vertex -2.372327e-001 1.376205e+000 2.836318e-001
         vertex -2.174378e-001 1.376205e+000 3.066901e-001
      endloop
   endfacet
   facet normal 0.000000e+000 1.000000e+000 0.000000e+000
      outer loop
         vertex 1.183068e-001 1.376205e+000 3.756873e-001
         vertex 1.455906e-001 1.376205e+000 3.623040e-001
         vertex 2.965405e-001 1.376205e+000 5.457167e-002
      endloop
   endfacet
   facet normal 0.000000e+000 1.000000e+000 0.000000e+000
      outer loop
         vertex 2.965405e-001 1.376205e+000 5.457167e-002
         vertex 1.455906e-001 1.376205e+000 3.623040e-001
         vertex 1.713805e-001 1.376205e+000 3.462290e-001
      endloop
   endfacet
   facet normal 0.000000e+000 1.000000e+000 0.000000e+000
      outer loop
         vertex 6.038956e-002 1.376205e+000 3.938590e-001
         vertex 2.904231e-001 1.376205e+000 2.480424e-002
         vertex 2.813256e-001 1.376205e+000 -4.191576e-003
      endloop
   endfacet
   facet normal 0.000000e+000 1.000000e+000 0.000000e+000
      outer loop
         vertex 2.174378e-001 1.376205e+000 -1.066901e-001
         vertex 1.954117e-001 1.376205e+000 -1.276274e-001
         vertex 6.038956e-002 1.376205e+000 3.938590e-001
      endloop
   endfacet
   facet normal 0.000000e+000 1.000000e+000 0.000000e+000
      outer loop
         vertex 6.038956e-002 1.376205e+000 3.938590e-001
         vertex 1.954117e-001 1.376205e+000 -1.276274e-001
         vertex 1.713805e-001 1.376205e+000 -1.462290e-001
      endloop
   endfacet
   facet normal 0.000000e+000 1.000000e+000 0.000000e+000
      outer loop
         vertex 6.038956e-002 1.376205e+000 3.938590e-001
         vertex 1.713805e-001 1.376205e+000 -1.462290e-001
         vertex 1.455906e-001 1.376205e+000 -1.623040e-001
      endloop
   endfacet
   facet normal 0.000000e+000 1.000000e+000 0.000000e+000
      outer loop
         vertex -2.813256e-001 1.376205e+000 -4.191576e-003
         vertex -2.904231e-001 1.376205e+000 2.480424e-002
         vertex -3.035050e-002 1.376205e+000 -1.984608e-001
      endloop
   endfacet
   facet normal 0.000000e+000 1.000000e+000 0.000000e+000
      outer loop
         vertex -3.035050e-002 1.376205e+000 -1.984608e-001
         vertex -2.904231e-001 1.376205e+000 2.480424e-002
         vertex -2.965405e-001 1.376205e+000 5.457167e-002
      endloop
   endfacet
   facet normal 0.000000e+000 1.000000e+000 0.000000e+000
      outer loop
         vertex -3.035050e-002 1.376205e+000 -1.984608e-001
         vertex -2.965405e-001 1.376205e+000 5.457167e-002
         vertex -3.108624e-016 1.376205e+000 -2.000000e-001
      endloop
   endfacet
   facet normal 0.000000e+000 1.000000e+000 0.000000e+000
      outer loop
         vertex -3.108624e-016 1.376205e+000 -2.000000e-001
         vertex -2.965405e-001 1.376205e+000 5.457167e-002
         vertex -2.996150e-001 1.376205e+000 8.480525e-002
      endloop
   endfacet
   facet normal 0.000000e+000 1.000000e+000 0.000000e+000
      outer loop
         vertex -3.108624e-016 1.376205e+000 -2.000000e-001
         vertex -2.996150e-001 1.376205e+000 8.480525e-002
         vertex -2.996150e-001 1.376205e+000 1.151948e-001
      endloop
   endfacet
   facet normal 0.000000e+000 1.000000e+000 0.000000e+000
      outer loop
         vertex 2.904231e-001 1.376205e+000 2.480424e-002
         vertex 6.038956e-002 1.376205e+000 3.938590e-001
         vertex 2.965405e-001 1.376205e+000 5.457167e-002
      endloop
   endfacet
   facet normal 0.000000e+000 1.000000e+000 0.000000e+000
      outer loop
         vertex 2.965405e-001 1.376205e+000 5.457167e-002
         vertex 6.038956e-002 1.376205e+000 3.938590e-001
         vertex 8.980893e-002 1.376205e+000 3.862418e-001
      endloop
   endfacet
   facet normal 0.000000e+000 1.000000e+000 0.000000e+000
      outer loop
         vertex 2.965405e-001 1.376205e+000 5.457167e-002
         vertex 8.980893e-002 1.376205e+000 3.862418e-001
         vertex 1.183068e-001 1.376205e+000 3.756873e-001
      endloop
   endfacet
   facet normal 0.000000e+000 1.000000e+000 0.000000e+000
      outer loop
         vertex 2.813256e-001 1.376205e+000 2.041916e-001
         vertex 2.174378e-001 1.376205e+000 3.066901e-001
         vertex 2.693413e-001 1.376205e+000 2.321182e-001
      endloop
   endfacet
   facet normal 0.000000e+000 1.000000e+000 0.000000e+000
      outer loop
         vertex 2.693413e-001 1.376205e+000 2.321182e-001
         vertex 2.174378e-001 1.376205e+000 3.066901e-001
         vertex 2.372327e-001 1.376205e+000 2.836318e-001
      endloop
   endfacet
   facet normal 0.000000e+000 1.000000e+000 0.000000e+000
      outer loop
         vertex 2.693413e-001 1.376205e+000 2.321182e-001
         vertex 2.372327e-001 1.376205e+000 2.836318e-001
         vertex 2.545933e-001 1.376205e+000 2.586892e-001
      endloop
   endfacet
   facet normal 0.000000e+000 1.000000e+000 0.000000e+000
      outer loop
         vertex 2.813256e-001 1.376205e+000 2.041916e-001
         vertex 2.904231e-001 1.376205e+000 1.751958e-001
         vertex 2.174378e-001 1.376205e+000 3.066901e-001
      endloop
   endfacet
   facet normal 0.000000e+000 1.000000e+000 0.000000e+000
      outer loop
         vertex 2.174378e-001 1.376205e+000 3.066901e-001
         vertex 2.904231e-001 1.376205e+000 1.751958e-001
         vertex 2.965405e-001 1.376205e+000 1.454283e-001
      endloop
   endfacet
   facet normal 0.000000e+000 1.000000e+000 0.000000e+000
      outer loop
         vertex 2.174378e-001 1.376205e+000 3.066901e-001
         vertex 2.965405e-001 1.376205e+000 1.454283e-001
         vertex 2.996150e-001 1.376205e+000 1.151948e-001
      endloop
   endfacet
   facet normal 0.000000e+000 1.000000e+000 0.000000e+000
      outer loop
         vertex 1.713805e-001 1.376205e+000 3.462290e-001
         vertex 1.954117e-001 1.376205e+000 3.276275e-001
         vertex 2.965405e-001 1.376205e+000 5.457167e-002
      endloop
   endfacet
   facet normal 0.000000e+000 1.000000e+000 0.000000e+000
      outer loop
         vertex 2.965405e-001 1.376205e+000 5.457167e-002
         vertex 1.954117e-001 1.376205e+000 3.276275e-001
         vertex 2.174378e-001 1.376205e+000 3.066901e-001
      endloop
   endfacet
   facet normal 0.000000e+000 1.000000e+000 0.000000e+000
      outer loop
         vertex 2.965405e-001 1.376205e+000 5.457167e-002
         vertex 2.174378e-001 1.376205e+000 3.066901e-001
         vertex 2.996150e-001 1.376205e+000 8.480525e-002
      endloop
   endfacet
   facet normal 0.000000e+000 1.000000e+000 0.000000e+000
      outer loop
         vertex 2.996150e-001 1.376205e+000 8.480525e-002
         vertex 2.174378e-001 1.376205e+000 3.066901e-001
         vertex 2.996150e-001 1.376205e+000 1.151948e-001
      endloop
   endfacet
   facet normal 0.000000e+000 1.000000e+000 0.000000e+000
      outer loop
         vertex 2.813256e-001 1.376205e+000 -4.191576e-003
         vertex 2.693413e-001 1.376205e+000 -3.211825e-002
         vertex 6.038956e-002 1.376205e+000 3.938590e-001
      endloop
   endfacet
   facet normal 0.000000e+000 1.000000e+000 0.000000e+000
      outer loop
         vertex 6.038956e-002 1.376205e+000 3.938590e-001
         vertex 2.693413e-001 1.376205e+000 -3.211825e-002
         vertex 2.545933e-001 1.376205e+000 -5.868920e-002
      endloop
   endfacet
   facet normal 0.000000e+000 1.000000e+000 0.000000e+000
      outer loop
         vertex 6.038956e-002 1.376205e+000 3.938590e-001
         vertex 2.545933e-001 1.376205e+000 -5.868920e-002
         vertex 2.372327e-001 1.376205e+000 -8.363179e-002
      endloop
   endfacet
   facet normal 0.000000e+000 1.000000e+000 0.000000e+000
      outer loop
         vertex -2.693413e-001 1.376205e+000 -3.211825e-002
         vertex -3.035050e-002 1.376205e+000 -1.984608e-001
         vertex -2.545933e-001 1.376205e+000 -5.868920e-002
      endloop
   endfacet
   facet normal 0.000000e+000 1.000000e+000 0.000000e+000
      outer loop
         vertex -2.545933e-001 1.376205e+000 -5.868920e-002
         vertex -3.035050e-002 1.376205e+000 -1.984608e-001
         vertex -6.038956e-002 1.376205e+000 -1.938590e-001
      endloop
   endfacet
   facet normal 0.000000e+000 1.000000e+000 0.000000e+000
      outer loop
         vertex -2.545933e-001 1.376205e+000 -5.868920e-002
         vertex -6.038956e-002 1.376205e+000 -1.938590e-001
         vertex -8.980893e-002 1.376205e+000 -1.862418e-001
      endloop
   endfacet
   facet normal 0.000000e+000 1.000000e+000 0.000000e+000
      outer loop
         vertex -1.183068e-001 1.376205e+000 -1.756873e-001
         vertex -1.455906e-001 1.376205e+000 -1.623040e-001
         vertex -1.713805e-001 1.376205e+000 -1.462290e-001
      endloop
   endfacet
   facet normal 0.000000e+000 1.000000e+000 0.000000e+000
      outer loop
         vertex -1.713805e-001 1.376205e+000 -1.462290e-001
         vertex -1.954117e-001 1.376205e+000 -1.276274e-001
         vertex -1.183068e-001 1.376205e+000 -1.756873e-001
      endloop
   endfacet
   facet normal 0.000000e+000 1.000000e+000 0.000000e+000
      outer loop
         vertex -1.183068e-001 1.376205e+000 -1.756873e-001
         vertex -1.954117e-001 1.376205e+000 -1.276274e-001
         vertex -2.174378e-001 1.376205e+000 -1.066901e-001
      endloop
   endfacet
   facet normal 0.000000e+000 1.000000e+000 0.000000e+000
      outer loop
         vertex -1.183068e-001 1.376205e+000 -1.756873e-001
         vertex -2.174378e-001 1.376205e+000 -1.066901e-001
         vertex -2.372327e-001 1.376205e+000 -8.363179e-002
      endloop
   endfacet
endsolid outlet
